<svg width="90" height="23" viewBox="0 0 90 23" fill="none" xmlns="http://www.w3.org/2000/svg">
<rect x="0.307465" width="22.3543" height="22.3543" rx="3.72572" fill="#141414"/>
<path d="M13.7736 9.75292L15.5663 8.014C14.32 7.33267 12.9212 6.97885 11.5009 6.98567C10.0806 6.99248 8.68529 7.35973 7.44565 8.05299C6.20601 8.74624 5.16263 9.74283 4.41326 10.9494C3.6639 12.1559 3.23307 13.533 3.16113 14.9515H5.50671C5.57391 14.0026 5.86383 13.0829 6.35294 12.2671C6.84205 11.4512 7.51658 10.7621 8.32181 10.2557C9.12704 9.74929 10.0403 9.4398 10.9875 9.35235C11.9347 9.26489 12.8892 9.40194 13.7736 9.75236V9.75292Z" fill="white"/>
<path d="M19.9267 14.9505H17.5815C17.4872 13.5969 16.938 12.3148 16.0232 11.3126L12.2664 14.9505H9.79263L10.2013 14.5544L12.2393 12.5762L14.6817 10.2046L15.7396 9.17871L16.4013 8.53646C16.4861 8.59624 16.5695 8.66018 16.6529 8.72413C16.76 8.80615 16.8656 8.89234 16.9685 8.97992C16.9838 8.99243 17.0005 9.00494 17.0158 9.01884C17.0769 9.07027 17.1339 9.12588 17.1937 9.1801C17.3702 9.34135 17.5426 9.50956 17.7067 9.68471C19.0419 11.125 19.8278 12.9891 19.9267 14.9505V14.9505Z" fill="white"/>
<path d="M28.6618 6.03665V3.84215H40.1917V6.03665H35.7251V18.2934H33.1284V6.03665H28.6618Z" fill="#212121"/>
<path d="M43.9457 18.5122C43.2589 18.5122 42.6403 18.3899 42.0899 18.1452C41.5442 17.8959 41.1114 17.529 40.7915 17.0445C40.4763 16.5599 40.3188 15.9625 40.3188 15.2522C40.3188 14.6406 40.4317 14.1349 40.6575 13.7351C40.8833 13.3352 41.1914 13.0153 41.5818 12.7754C41.9723 12.5355 42.4121 12.3544 42.9014 12.2321C43.3953 12.1051 43.9057 12.0133 44.4326 11.9569C45.0676 11.891 45.5827 11.8322 45.9779 11.7805C46.3731 11.724 46.66 11.6393 46.8388 11.5264C47.0222 11.4088 47.114 11.2277 47.114 10.9831V10.9408C47.114 10.4092 46.9564 9.99758 46.6412 9.70592C46.326 9.41426 45.8721 9.26843 45.2793 9.26843C44.6537 9.26843 44.1574 9.40485 43.7905 9.6777C43.4282 9.95054 43.1836 10.2728 43.0566 10.6444L40.6716 10.3057C40.8597 9.64712 41.1702 9.09673 41.603 8.65453C42.0358 8.20764 42.565 7.87364 43.1907 7.65254C43.8163 7.42674 44.5078 7.31384 45.2652 7.31384C45.7874 7.31384 46.3072 7.37499 46.8247 7.4973C47.3421 7.61961 47.8149 7.82189 48.243 8.10414C48.671 8.38169 49.0145 8.76038 49.2732 9.24021C49.5366 9.72003 49.6683 10.3198 49.6683 11.0396V18.2934H47.2127V16.8045H47.1281C46.9728 17.1056 46.7541 17.3879 46.4718 17.6513C46.1943 17.91 45.8438 18.1194 45.4205 18.2793C45.0018 18.4345 44.5102 18.5122 43.9457 18.5122ZM44.609 16.6352C45.1217 16.6352 45.5663 16.5341 45.9426 16.3318C46.319 16.1248 46.6083 15.8519 46.8105 15.5132C47.0175 15.1745 47.121 14.8053 47.121 14.4054V13.1282C47.041 13.1941 46.9046 13.2552 46.7118 13.3117C46.5236 13.3681 46.3119 13.4175 46.0767 13.4599C45.8415 13.5022 45.6086 13.5398 45.3781 13.5728C45.1476 13.6057 44.9477 13.6339 44.7783 13.6574C44.3973 13.7092 44.0562 13.7939 43.7552 13.9115C43.4541 14.0291 43.2165 14.1937 43.0425 14.4054C42.8684 14.6124 42.7814 14.8805 42.7814 15.2098C42.7814 15.6802 42.9531 16.0354 43.2965 16.2753C43.6399 16.5152 44.0774 16.6352 44.609 16.6352Z" fill="#212121"/>
<path d="M56.9645 18.5051C55.8826 18.5051 54.9535 18.2675 54.1773 17.7924C53.4058 17.3173 52.8107 16.6611 52.3921 15.8237C51.9781 14.9817 51.7711 14.0126 51.7711 12.9165C51.7711 11.8158 51.9828 10.8443 52.4062 10.0023C52.8296 9.15553 53.427 8.49694 54.1985 8.02653C54.9747 7.5514 55.892 7.31384 56.9504 7.31384C57.8301 7.31384 58.6087 7.47613 59.2861 7.80072C59.9682 8.12061 60.5115 8.57456 60.9161 9.16259C61.3206 9.74591 61.5511 10.428 61.6076 11.2089H59.1661C59.0673 10.6867 58.8321 10.2516 58.4605 9.9035C58.0935 9.55068 57.602 9.37428 56.9857 9.37428C56.4635 9.37428 56.0049 9.5154 55.6097 9.79765C55.2146 10.0752 54.9065 10.4751 54.6854 10.9972C54.469 11.5194 54.3608 12.145 54.3608 12.8742C54.3608 13.6128 54.469 14.2478 54.6854 14.7794C54.9017 15.3063 55.2052 15.7132 55.5956 16.0001C55.9908 16.2824 56.4541 16.4235 56.9857 16.4235C57.362 16.4235 57.6984 16.3529 57.9948 16.2118C58.2958 16.066 58.5475 15.8567 58.7498 15.5838C58.9521 15.311 59.0908 14.9793 59.1661 14.5889H61.6076C61.5464 15.3557 61.3206 16.0354 60.9302 16.6281C60.5397 17.2162 60.0081 17.6772 59.3354 18.0112C58.6628 18.3405 57.8724 18.5051 56.9645 18.5051Z" fill="#212121"/>
<path d="M66.0336 14.8923L66.0266 11.8087H66.4358L70.3309 7.45497H73.3157L68.5245 12.7895H67.9953L66.0336 14.8923ZM63.7051 18.2934V3.84215H66.2594V18.2934H63.7051ZM70.5073 18.2934L66.9792 13.3611L68.7009 11.5617L73.5627 18.2934H70.5073Z" fill="#212121"/>
<path d="M77.5724 3.84215V18.2934H75.018V3.84215H77.5724Z" fill="#212121"/>
<path d="M84.9974 18.5051C83.9107 18.5051 82.9722 18.2793 82.1819 17.8277C81.3963 17.3714 80.7919 16.7269 80.3685 15.8943C79.9451 15.0569 79.7334 14.0714 79.7334 12.9377C79.7334 11.8228 79.9451 10.8443 80.3685 10.0023C80.7966 9.15553 81.394 8.49694 82.1608 8.02653C82.9276 7.5514 83.8284 7.31384 84.8633 7.31384C85.5313 7.31384 86.1617 7.42204 86.7544 7.63843C87.3518 7.85012 87.8787 8.17941 88.335 8.62631C88.796 9.07321 89.1583 9.64241 89.4217 10.3339C89.6851 11.0207 89.8168 11.8393 89.8168 12.7895V13.5728H80.933V11.851H87.3683C87.3636 11.3618 87.2578 10.9267 87.0508 10.5456C86.8438 10.1599 86.5545 9.85646 86.1829 9.63536C85.8159 9.41426 85.3878 9.30371 84.8986 9.30371C84.3764 9.30371 83.9178 9.43073 83.5226 9.68475C83.1275 9.93407 82.8194 10.2634 82.5983 10.6726C82.3819 11.0772 82.2713 11.5217 82.2666 12.0063V13.5093C82.2666 14.1396 82.3819 14.6806 82.6124 15.1322C82.8429 15.5791 83.1651 15.9225 83.5791 16.1624C83.9931 16.3976 84.4776 16.5152 85.0327 16.5152C85.4043 16.5152 85.7407 16.4635 86.0417 16.36C86.3428 16.2518 86.6039 16.0942 86.825 15.8872C87.0461 15.6802 87.2131 15.4239 87.326 15.1181L89.711 15.3862C89.5605 16.0166 89.2735 16.567 88.8501 17.0374C88.4315 17.5031 87.8952 17.8653 87.2413 18.1241C86.5874 18.3781 85.8394 18.5051 84.9974 18.5051Z" fill="#212121"/>
</svg>
